<?xml version="1.0" encoding="UTF-8" standalone="no"?>
<!-- Created with Inkscape (http://www.inkscape.org/) -->

<svg
   version="1.1"
   id="svg2"
   xml:space="preserve"
   width="1400.0992"
   height="534.02667"
   viewBox="0 0 1400.0992 534.02666"
   sodipodi:docname="owl-banner.svg"
   inkscape:version="1.1.2 (0a00cf5339, 2022-02-04)"
   xmlns:inkscape="http://www.inkscape.org/namespaces/inkscape"
   xmlns:sodipodi="http://sodipodi.sourceforge.net/DTD/sodipodi-0.dtd"
   xmlns="http://www.w3.org/2000/svg"
   xmlns:svg="http://www.w3.org/2000/svg"><defs
     id="defs6"><clipPath
       clipPathUnits="userSpaceOnUse"
       id="clipPath44"><path
         d="M 0,2000 H 2000 V 0 H 0 Z"
         id="path42" /></clipPath></defs><sodipodi:namedview
     id="namedview4"
     pagecolor="#ffffff"
     bordercolor="#666666"
     borderopacity="1.0"
     inkscape:pageshadow="2"
     inkscape:pageopacity="0.0"
     inkscape:pagecheckerboard="0"
     showgrid="false"
     inkscape:zoom="0.51359633"
     inkscape:cx="670.76025"
     inkscape:cy="273.56115"
     inkscape:window-width="1058"
     inkscape:window-height="688"
     inkscape:window-x="0"
     inkscape:window-y="0"
     inkscape:window-maximized="1"
     inkscape:current-layer="g40"
     fit-margin-top="0"
     fit-margin-left="0"
     fit-margin-right="0"
     fit-margin-bottom="0" /><g
     id="g8"
     inkscape:groupmode="layer"
     inkscape:label="AI FILE"
     transform="matrix(1.3333333,0,0,-1.3333333,-633.28372,1600.3469)"><g
       id="g10"
       transform="translate(939.1736,1057.8458)"
       style="stroke:#212529;stroke-opacity:1;fill:#000000;fill-opacity:1"><path
         d="m 0,0 h -17.85 l -16.015,116.777 h 12.678 L -7.507,17.35 5.505,116.61 H 18.351 L 31.196,17.183 44.375,116.777 H 55.72 L 39.871,0 H 22.688 L 11.511,79.242 Z"
         style="fill:#000000;fill-opacity:1;fill-rule:nonzero;stroke:#212529;stroke-opacity:1"
         id="path12" /></g><path
       d="m 1038.429,1057.846 h -13.012 v 116.777 h 13.012 z"
       style="fill:#000000;fill-opacity:1;fill-rule:nonzero;stroke:#212529;stroke-opacity:1"
       id="path14" /><g
       id="g16"
       transform="translate(1071.7922,1057.8458)"
       style="stroke:#212529;stroke-opacity:1;fill:#000000;fill-opacity:1"><path
         d="M 0,0 V 116.777 H 13.012 V 11.845 H 46.377 V 0 Z"
         style="fill:#000000;fill-opacity:1;fill-rule:nonzero;stroke:#212529;stroke-opacity:1"
         id="path18" /></g><g
       id="g20"
       transform="translate(1148.0276,1057.8458)"
       style="stroke:#212529;stroke-opacity:1;fill:#000000;fill-opacity:1"><path
         d="M 0,0 V 116.777 H 13.012 V 11.845 H 46.377 V 0 Z"
         style="fill:#000000;fill-opacity:1;fill-rule:nonzero;stroke:#212529;stroke-opacity:1"
         id="path22" /></g><path
       d="m 1237.276,1057.846 h -13.012 v 116.777 h 13.012 z"
       style="fill:#000000;fill-opacity:1;fill-rule:nonzero;stroke:#212529;stroke-opacity:1"
       id="path24" /><g
       id="g26"
       transform="translate(1285.4861,1092.545)"
       style="stroke:#212529;stroke-opacity:1;fill:#000000;fill-opacity:1"><path
         d="M 0,0 H 26.024 L 12.845,67.397 Z M -1.668,-11.177 -6.173,-34.699 H -18.184 L 4.17,82.078 H 23.021 L 45.376,-34.699 H 32.364 l -4.505,23.522 z"
         style="fill:#000000;fill-opacity:1;fill-rule:nonzero;stroke:#212529;stroke-opacity:1"
         id="path28" /></g><g
       id="g30"
       transform="translate(1404.0945,1058.0128)"
       style="stroke:#212529;stroke-opacity:1;fill:#000000;fill-opacity:1"><path
         d="M 0,0 H -12.512 L -31.864,92.921 V -0.167 H -43.208 V 116.61 h 18.184 L -5.839,23.355 12.678,116.61 H 30.862 V -0.167 H 18.517 v 93.922 z"
         style="fill:#000000;fill-opacity:1;fill-rule:nonzero;stroke:#212529;stroke-opacity:1"
         id="path32" /></g><g
       id="g34"
       transform="translate(949.6839,922.7267)"
       style="stroke:#212529;stroke-opacity:1;fill:#000000;fill-opacity:1"><path
         d="M 0,0 V -11.678 H -28.527 V -53.217 H 6.506 V -65.062 H -41.54 V 51.715 H 6.506 V 39.871 H -28.527 V 0 Z"
         style="fill:#000000;fill-opacity:1;fill-rule:nonzero;stroke:#212529;stroke-opacity:1"
         id="path36" /></g><g
       id="g40"
       clip-path="url(#clipPath44)"><path
         d="m 1015.409,869.5099 c 9.342,0 13.847,5.839 13.847,16.516 v 60.056 c 0,10.677 -4.505,16.516 -14.014,16.516 h -14.013 v -93.088 z m 0.167,104.932 c 18.184,0 26.525,-11.01 26.525,-29.027 v -58.889 c 0,-17.85 -8.341,-28.861 -26.525,-28.861 h -27.359 v 116.777 z"
         style="fill:#000000;fill-opacity:1;fill-rule:nonzero;stroke:#212529;stroke-opacity:1"
         id="path48" /><path
         d="m 1117.3352,857.8322 h -12.512 l -19.352,92.921 v -93.088 h -11.344 v 116.777 h 18.184 l 19.185,-93.255 18.517,93.255 h 18.184 v -116.777 h -12.345 v 93.922 z"
         style="fill:#000000;fill-opacity:1;fill-rule:nonzero;stroke:#212529;stroke-opacity:1"
         id="path52" /><path
         d="m 1194.57,857.665 h -13.012 v 116.777 h 13.012 z"
         style="fill:#000000;fill-opacity:1;fill-rule:nonzero;stroke:#212529;stroke-opacity:1"
         id="path54" /><path
         d="m 1278.4812,946.4156 v -3.169 h -12.345 v 3.836 c 0,10.51 -4.004,16.683 -13.346,16.683 -9.342,0 -13.346,-6.173 -13.346,-16.516 0,-26.191 39.204,-28.693 39.204,-61.558 0,-17.683 -8.508,-29.194 -26.358,-29.194 -17.851,0 -26.192,11.511 -26.192,29.194 v 6.673 h 12.178 v -7.34 c 0,-10.51 4.338,-16.683 13.68,-16.683 9.342,0 13.68,6.173 13.68,16.683 0,26.024 -39.037,28.527 -39.037,61.391 0,18.017 8.341,29.194 25.858,29.194 17.683,0 26.024,-11.51 26.024,-29.194"
         style="fill:#000000;fill-opacity:1;fill-rule:nonzero;stroke:#212529;stroke-opacity:1"
         id="path58" /><path
         d="m 1326.8572,857.6652 v 104.933 h -21.521 v 11.844 h 55.887 v -11.844 h -21.521 v -104.933 z"
         style="fill:#000000;fill-opacity:1;fill-rule:nonzero;stroke:#212529;stroke-opacity:1"
         id="path62" /><path
         d="m 1431.6194,922.7267 v -11.678 h -28.527 v -41.539 h 35.033 v -11.845 h -48.046 v 116.777 h 48.046 v -11.844 h -35.033 v -39.871 z"
         style="fill:#000000;fill-opacity:1;fill-rule:nonzero;stroke:#212529;stroke-opacity:1"
         id="path66" /><path
         d="m 1481.6633,857.6652 h -11.678 v 116.777 h 16.516 l 27.025,-84.413 v 84.413 h 11.511 v -116.777 h -13.513 l -29.861,94.422 z"
         style="fill:#000000;fill-opacity:1;fill-rule:nonzero;stroke:#212529;stroke-opacity:1"
         id="path70" /><g
         id="g72"
         transform="translate(539.0767,1195.0182)"><path
           d="m 0,0 h -5.242 v -328.909 h 267.783 l 66.369,-66.369 v 71.61 40.669 V 5.242 H -5.242 V 0 H 0 v -5.242 h 318.426 v -277.757 -40.669 -46.301 l -51.543,51.543 H 5.242 V 0 H 0 v -5.242 z"
           style="fill:#e55928;fill-opacity:1;fill-rule:nonzero;stroke:none"
           id="path74" /></g><g
         id="g76"
         transform="translate(828.6848,949.6862)"><path
           d="M 0,0 H -353.722 V 10.483 H 0"
           style="fill:#e55928;fill-opacity:1;fill-rule:nonzero;stroke:none"
           id="path78" /></g><g
         id="g80"
         transform="translate(542.7832,951.2214)"><path
           d="m 0,0 -45.891,-45.891 -7.413,7.413 45.891,45.891"
           style="fill:#e55928;fill-opacity:1;fill-rule:nonzero;stroke:none"
           id="path82" /></g><g
         id="g84"
         transform="translate(706.1544,897.8849)"><path
           d="m 0,0 v 50.587 l -11.503,28.133 -25.182,61.588 -9.704,-3.968 25.183,-61.587 10.723,-26.226 V 0 Z"
           style="fill:#e55928;fill-opacity:1;fill-rule:nonzero;stroke:none"
           id="path86" /></g><g
         id="g88"
         transform="translate(686.2206,978.7549)"><path
           d="m 0,0 -38.184,-59.397 1.72,-2.806 c 0.252,-0.401 3.914,-6.294 11.973,-12.201 4.027,-2.948 9.159,-5.888 15.467,-8.084 6.306,-2.197 13.784,-3.64 22.431,-3.638 0.455,0 0.913,0.004 1.373,0.012 l -0.18,10.481 c -0.402,-0.006 -0.799,-0.01 -1.193,-0.01 -7.487,0.002 -13.752,1.236 -18.985,3.056 -7.84,2.73 -13.388,6.804 -16.972,10.167 -1.79,1.68 -3.081,3.179 -3.901,4.221 -0.41,0.521 -0.703,0.928 -0.881,1.186 -0.089,0.129 -0.149,0.22 -0.181,0.27 l -0.028,0.042 -0.491,-0.31 0.493,0.307 -0.002,0.003 -0.491,-0.31 0.493,0.307 -2.417,-1.503 2.422,1.495 -0.005,0.008 -2.417,-1.503 2.422,1.495 -3.442,-2.125 3.445,2.12 -0.003,0.005 -3.442,-2.125 3.445,2.12 v 0 l -4.416,-2.717 4.421,2.71 -0.005,0.007 -4.416,-2.717 4.421,2.71 -4.469,-2.74 4.409,-2.834 36.404,56.629 z"
           style="fill:#e55928;fill-opacity:1;fill-rule:nonzero;stroke:none"
           id="path90" /></g><g
         id="g92"
         transform="translate(628.8423,1075.2815)"><path
           d="m 0,0 c -0.106,-0.232 -1.65,-3.646 -3.176,-9.556 -1.525,-5.908 -3.033,-14.317 -3.034,-24.518 -0.003,-12.235 2.184,-27.062 9.099,-43.085 6.909,-16.023 18.539,-33.204 37.203,-50.195 l 7.058,7.75 c -17.668,16.097 -28.333,32.001 -34.635,46.598 -6.296,14.6 -8.238,27.931 -8.241,38.932 -0.001,9.164 1.358,16.701 2.7,21.898 0.671,2.597 1.337,4.609 1.822,5.942 0.242,0.666 0.44,1.163 0.57,1.479 0.065,0.158 0.113,0.27 0.142,0.336 l 0.028,0.064 0.002,0.005 -2.783,1.258 2.777,-1.271 0.006,0.013 -2.783,1.258 2.777,-1.271 z"
           style="fill:#e55928;fill-opacity:1;fill-rule:nonzero;stroke:none"
           id="path94" /></g><g
         id="g96"
         transform="translate(706.1544,897.8849)"><path
           d="M 0,0 V 48.526 L 10.723,74.753 35.906,136.34 26.202,140.308 1.019,78.72 -10.483,50.587 V 0 Z"
           style="fill:#e55928;fill-opacity:1;fill-rule:nonzero;stroke:none"
           id="path98" /></g><g
         id="g100"
         transform="translate(706.7823,973.0859)"><path
           d="m 0,0 36.404,-56.629 4.41,2.834 -4.469,2.74 2.668,-1.635 -2.654,1.658 -0.014,-0.023 2.668,-1.635 -2.654,1.658 -0.004,-0.006 c -0.137,-0.223 -3.267,-5.032 -9.86,-9.685 -3.298,-2.331 -7.458,-4.634 -12.589,-6.363 -5.132,-1.727 -11.24,-2.886 -18.495,-2.888 -0.393,0 -0.791,0.004 -1.192,0.01 l -0.181,-10.481 c 0.46,-0.008 0.918,-0.012 1.373,-0.012 8.648,-0.002 16.126,1.441 22.431,3.638 9.467,3.295 16.266,8.258 20.703,12.425 4.441,4.173 6.549,7.556 6.737,7.86 l 1.721,2.806 L 8.818,5.669 Z"
           style="fill:#e55928;fill-opacity:1;fill-rule:nonzero;stroke:none"
           id="path102" /></g><g
         id="g104"
         transform="translate(763.4466,1070.9186)"><path
           d="M 0,0 2.77,1.268 -0.006,0.013 0,0 2.77,1.268 -0.006,0.013 0.006,-0.014 C 0.147,-0.332 1.467,-3.391 2.745,-8.552 4.023,-13.713 5.259,-20.972 5.259,-29.711 5.256,-40.712 3.313,-54.043 -2.983,-68.643 -9.285,-83.24 -19.95,-99.144 -37.618,-115.241 l 7.059,-7.751 c 18.663,16.992 30.293,34.173 37.202,50.196 6.916,16.022 9.102,30.85 9.099,43.085 0,10.201 -1.508,18.61 -3.033,24.518 -1.527,5.91 -3.071,9.324 -3.177,9.556 z"
           style="fill:#e55928;fill-opacity:1;fill-rule:nonzero;stroke:none"
           id="path106" /></g><g
         id="g108"
         transform="translate(772.0289,1097.3802)"><path
           d="m 0,0 h -5.242 c 0,-9.11 -1.843,-17.762 -5.175,-25.641 -4.996,-11.815 -13.356,-21.884 -23.873,-28.988 -10.52,-7.104 -23.167,-11.245 -36.828,-11.248 -9.11,10e-4 -17.762,1.844 -25.641,5.175 -11.815,4.997 -21.884,13.357 -28.988,23.873 -7.104,10.521 -11.246,23.167 -11.248,36.829 0.001,9.11 1.844,17.762 5.175,25.641 4.996,11.815 13.356,21.884 23.873,28.988 10.521,7.104 23.167,11.246 36.829,11.248 9.11,-10e-4 17.762,-1.844 25.64,-5.175 11.816,-4.996 21.885,-13.357 28.989,-23.874 C -9.386,26.308 -5.244,13.662 -5.242,0 H 0 5.242 c 0,10.529 -2.137,20.586 -6.003,29.724 -5.8,13.71 -15.476,25.359 -27.66,33.592 -12.181,8.233 -26.901,13.046 -42.697,13.044 -10.529,0.001 -20.586,-2.137 -29.725,-6.003 -13.71,-5.8 -25.358,-15.475 -33.591,-27.66 -8.233,-12.181 -13.046,-26.9 -13.044,-42.697 -0.001,-10.529 2.137,-20.586 6.003,-29.724 5.8,-13.71 15.475,-25.359 27.66,-33.592 12.18,-8.233 26.9,-13.046 42.697,-13.044 10.528,-0.001 20.586,2.137 29.724,6.003 13.71,5.8 25.359,15.475 33.591,27.66 C 0.43,-30.516 5.244,-15.797 5.242,0 Z"
           style="fill:#e55928;fill-opacity:1;fill-rule:nonzero;stroke:none"
           id="path110" /></g><g
         id="g112"
         transform="translate(773.6723,1167.1105)"><path
           d="M 0,0 3.152,0.215 -0.001,0.012 0,0 3.152,0.215 -0.001,0.012 0,-0.006 c 0.006,-0.102 0.033,-0.619 0.033,-1.452 0.001,-1.586 -0.1,-4.32 -0.611,-7.503 -0.383,-2.387 -0.996,-5.024 -1.941,-7.619 -0.709,-1.947 -1.603,-3.868 -2.712,-5.659 -1.669,-2.691 -3.796,-5.078 -6.598,-6.968 -2.808,-1.886 -6.32,-3.32 -11.003,-3.936 -7.646,-0.994 -14.789,-2.376 -21.282,-4.303 -4.869,-1.447 -9.376,-3.201 -13.446,-5.361 -3.051,-1.62 -5.859,-3.472 -8.364,-5.601 -3.757,-3.188 -6.834,-7.03 -8.918,-11.508 -2.092,-4.474 -3.166,-9.538 -3.161,-15.039 h 10.483 c 0,3.262 -0.372,6.365 -1.115,9.287 -1.294,5.117 -3.752,9.652 -7.085,13.45 -2.498,2.854 -5.471,5.306 -8.798,7.413 -4.995,3.161 -10.786,5.566 -17.196,7.449 -6.411,1.88 -13.451,3.234 -20.977,4.213 -2.775,0.362 -5.14,1.019 -7.189,1.881 -3.58,1.513 -6.235,3.639 -8.358,6.168 -1.586,1.896 -2.853,4.029 -3.854,6.26 -1.502,3.343 -2.389,6.902 -2.877,10.022 -0.491,3.119 -0.588,5.793 -0.588,7.354 0,0.508 0.01,0.898 0.02,1.148 0.004,0.125 0.009,0.215 0.011,0.268 l 0.003,0.049 V 0.01 l -3.167,0.206 3.167,-0.217 V 0.01 l -3.167,0.206 3.167,-0.217 -10.459,0.717 c -0.007,-0.104 -0.058,-0.883 -0.058,-2.174 0.001,-2.016 0.121,-5.276 0.744,-9.163 0.468,-2.915 1.218,-6.184 2.441,-9.546 0.918,-2.52 2.104,-5.094 3.649,-7.591 2.314,-3.742 5.465,-7.322 9.652,-10.142 4.181,-2.826 9.369,-4.846 15.512,-5.639 7.238,-0.94 13.862,-2.237 19.648,-3.957 4.341,-1.288 8.206,-2.813 11.514,-4.57 2.482,-1.318 4.649,-2.764 6.492,-4.33 2.766,-2.357 4.805,-4.956 6.206,-7.951 1.394,-2.998 2.174,-6.439 2.179,-10.608 h 10.483 c 0,2.469 0.279,4.687 0.792,6.704 0.904,3.528 2.495,6.469 4.814,9.129 1.741,1.989 3.909,3.808 6.518,5.461 3.91,2.48 8.815,4.569 14.538,6.246 5.722,1.679 12.252,2.951 19.377,3.876 3.641,0.473 6.944,1.368 9.903,2.614 5.186,2.175 9.274,5.435 12.335,9.107 2.303,2.754 4.047,5.73 5.377,8.694 1.993,4.451 3.068,8.879 3.668,12.685 0.597,3.807 0.714,6.997 0.714,8.981 0,1.29 -0.05,2.069 -0.057,2.173 z"
           style="fill:#e55928;fill-opacity:1;fill-rule:nonzero;stroke:none"
           id="path114" /></g><g
         id="g116"
         transform="translate(738.8975,1122.7844)"><path
           d="m 0,0 c 1.803,-1.151 3.351,-2.695 4.506,-4.518 1.156,-1.824 1.924,-3.919 2.185,-6.228 0.063,-0.561 0.093,-1.117 0.093,-1.666 0,-3.692 -1.385,-7.125 -3.724,-9.761 -2.345,-2.632 -5.585,-4.423 -9.364,-4.85 -0.562,-0.063 -1.119,-0.094 -1.668,-0.094 -3.693,0 -7.125,1.384 -9.76,3.722 -2.631,2.344 -4.422,5.584 -4.849,9.366 -0.064,0.562 -0.094,1.116 -0.094,1.663 0,1.164 0.137,2.297 0.397,3.392 l -10.2,2.42 c -0.444,-1.871 -0.681,-3.82 -0.681,-5.812 0,-0.936 0.053,-1.882 0.16,-2.833 0.717,-6.424 3.82,-12.057 8.305,-16.034 4.48,-3.983 10.385,-6.367 16.722,-6.367 0.939,0 1.886,0.052 2.837,0.159 6.424,0.718 12.056,3.821 16.033,8.306 3.983,4.48 6.37,10.384 6.37,16.723 0,0.938 -0.053,1.885 -0.159,2.836 -0.439,3.911 -1.764,7.544 -3.75,10.673 -1.986,3.131 -4.628,5.766 -7.717,7.739 z"
           style="fill:#e55928;fill-opacity:1;fill-rule:nonzero;stroke:none"
           id="path118" /></g><g
         id="g120"
         transform="translate(735.3459,1120.3607)"><path
           d="m 0,0 c 3.345,-1.598 5.658,-5.013 5.658,-8.968 0,-5.492 -4.452,-9.943 -9.944,-9.943 -5.487,0 -9.939,4.451 -9.939,9.943 0,1.869 0.514,3.611 1.411,5.105"
           style="fill:#e55928;fill-opacity:1;fill-rule:nonzero;stroke:none"
           id="path122" /></g><g
         id="g124"
         transform="translate(685.2017,1113.811)"><path
           d="m 0,0 c 0.26,-1.095 0.397,-2.229 0.397,-3.392 0,-0.547 -0.03,-1.101 -0.093,-1.663 -0.428,-3.783 -2.219,-7.022 -4.85,-9.367 -2.635,-2.337 -6.067,-3.721 -9.76,-3.721 -0.549,0 -1.106,0.03 -1.668,0.093 -3.779,0.427 -7.019,2.219 -9.365,4.851 -2.338,2.636 -3.723,6.068 -3.723,9.76 0,0.549 0.03,1.105 0.093,1.666 0.261,2.309 1.029,4.404 2.185,6.228 1.155,1.823 2.703,3.367 4.506,4.518 l -5.642,8.836 c -3.089,-1.973 -5.731,-4.608 -7.717,-7.739 -1.986,-3.129 -3.311,-6.761 -3.75,-10.672 -0.106,-0.952 -0.159,-1.899 -0.159,-2.837 0,-6.338 2.387,-12.243 6.37,-16.723 3.977,-4.484 9.609,-7.587 16.033,-8.306 0.951,-0.106 1.898,-0.159 2.837,-0.159 6.337,0 12.242,2.385 16.722,6.368 4.485,3.976 7.588,9.609 8.306,16.035 0.106,0.95 0.158,1.895 0.158,2.832 10e-4,1.991 -0.236,3.94 -0.68,5.811 z"
           style="fill:#e55928;fill-opacity:1;fill-rule:nonzero;stroke:none"
           id="path126" /></g><g
         id="g128"
         transform="translate(666.4755,1120.3607)"><path
           d="m 0,0 c -3.345,-1.598 -5.658,-5.013 -5.658,-8.968 0,-5.492 4.452,-9.943 9.944,-9.943 5.487,0 9.939,4.451 9.939,9.943 0,1.869 -0.514,3.611 -1.411,5.105"
           style="fill:#e55928;fill-opacity:1;fill-rule:nonzero;stroke:none"
           id="path130" /></g><g
         id="g132"
         transform="translate(703.6984,1102.7651)"><path
           d="M 0,0 9.146,-20.72 -2.788,-43.907 -14.721,-20.72 -5.575,0"
           style="fill:#e55928;fill-opacity:1;fill-rule:nonzero;stroke:none"
           id="path134" /></g></g></g></svg>
