<?xml version="1.0" standalone="no"?>
<!DOCTYPE svg PUBLIC "-//W3C//DTD SVG 20010904//EN"
 "http://www.w3.org/TR/2001/REC-SVG-20010904/DTD/svg10.dtd">
<svg version="1.0" xmlns="http://www.w3.org/2000/svg"
 width="700.000000pt" height="700.000000pt" viewBox="0 0 700.000000 700.000000"
 preserveAspectRatio="xMidYMid meet">
<metadata>
Created by potrace 1.14, written by Peter Selinger 2001-2017
</metadata>
<g transform="translate(0.000000,700.000000) scale(0.100000,-0.100000)"
fill="#000000" stroke="none">
<path d="M150 3506 c0 -2666 3 -3345 13 -3348 6 -2 1513 -4 3347 -3 l3335 0 3
3348 2 3347 -3350 0 -3350 0 0 -3344z m6486 834 l-1 -2300 -1124 0 c-1065 0
-1123 1 -1110 17 8 10 21 25 30 33 27 25 132 160 196 250 140 200 256 426 328
642 24 73 46 144 48 158 3 14 10 43 15 65 32 119 50 315 47 485 -4 230 -21
348 -77 534 l-29 100 20 75 c55 205 65 461 27 665 -22 117 -58 233 -103 336
l-24 55 38 35 c141 130 234 355 249 602 l6 108 -68 -5 c-38 -2 -86 -5 -106 -7
-36 -2 -38 -4 -39 -38 -1 -73 -10 -147 -25 -210 -20 -84 -84 -215 -127 -263
l-35 -38 -45 63 c-73 102 -209 237 -327 323 -203 148 -470 254 -708 281 -122
15 -412 8 -464 -11 -7 -2 -24 -6 -38 -9 -84 -14 -235 -64 -349 -117 -199 -92
-430 -280 -561 -457 l-53 -73 -25 28 c-89 102 -144 247 -157 423 -4 47 -10 88
-14 91 -3 4 -51 10 -105 13 l-99 6 7 -98 c8 -128 14 -161 42 -260 41 -141 126
-284 211 -356 l32 -27 -21 -52 c-95 -234 -123 -377 -123 -617 0 -181 7 -239
46 -394 11 -44 18 -87 16 -95 -48 -154 -74 -264 -92 -386 -3 -22 -8 -119 -10
-215 -3 -157 6 -292 29 -410 3 -14 7 -36 10 -50 26 -149 101 -364 191 -545
106 -216 216 -382 384 -582 l61 -73 -1125 0 -1125 0 0 2300 0 2300 3138 0
3138 0 0 -2300z m-2876 1742 c216 -46 382 -123 555 -258 112 -86 274 -262 261
-283 -5 -8 -43 -16 -131 -26 -22 -3 -49 -7 -61 -10 -12 -3 -39 -7 -60 -10 -56
-9 -228 -52 -304 -77 -94 -30 -238 -99 -310 -148 -62 -42 -161 -134 -193 -181
l-17 -24 -27 35 c-121 158 -334 281 -620 356 -81 21 -286 59 -377 69 -28 3
-52 8 -55 10 -7 8 44 78 109 148 192 209 462 357 735 404 99 17 133 19 260 17
96 -1 170 -8 235 -22z m-1365 -753 c28 -6 54 -15 58 -19 5 -4 -1 -26 -12 -48
-72 -141 -58 -343 33 -486 59 -92 182 -185 281 -211 17 -5 37 -10 45 -12 33
-9 178 -5 220 6 74 20 164 69 217 119 51 47 106 122 122 163 7 20 9 17 19 -24
8 -31 9 -53 3 -64 -6 -10 -20 -40 -32 -68 -11 -27 -36 -85 -54 -127 l-34 -76
48 -94 c138 -272 184 -358 191 -358 4 0 39 62 78 138 39 75 91 177 116 225
l45 88 -64 146 c-61 137 -64 148 -55 184 6 22 13 39 15 39 2 0 12 -17 21 -37
67 -144 246 -257 422 -267 231 -12 451 148 512 374 29 105 16 250 -30 340 -11
22 -20 43 -20 48 0 5 26 14 58 20 31 6 67 14 78 17 20 6 25 -2 52 -72 26 -67
54 -160 68 -228 26 -121 29 -342 7 -463 -8 -42 -17 -90 -19 -106 -15 -78 -136
-365 -163 -386 -4 -3 -21 -27 -39 -55 -17 -27 -46 -66 -63 -85 -17 -19 -36
-42 -43 -50 -6 -8 -43 -45 -83 -82 -170 -158 -392 -272 -633 -324 -106 -23
-341 -28 -462 -9 -295 45 -583 201 -773 418 -33 37 -65 74 -71 80 -64 73 -167
267 -207 392 -48 149 -61 230 -61 390 -1 220 17 331 86 508 27 70 32 78 52 73
11 -4 44 -11 71 -17z m378 -70 l38 -10 -33 -23 c-97 -65 -106 -220 -16 -303
123 -115 329 -25 330 144 0 23 -3 52 -7 64 -7 21 -5 20 46 -9 53 -30 54 -32
57 -82 4 -61 -34 -152 -81 -198 -89 -86 -220 -110 -327 -60 -69 32 -112 73
-146 140 -51 99 -30 247 45 326 24 25 39 27 94 11z m1549 -16 c52 -56 74 -117
73 -198 -5 -236 -281 -373 -467 -232 -76 58 -118 139 -118 228 0 47 -1 45 79
92 33 20 33 20 28 1 -15 -46 -15 -78 -2 -122 40 -133 209 -185 315 -96 30 25
60 73 67 104 15 71 -12 159 -60 197 -35 27 -35 37 -2 44 52 11 61 10 87 -18z
m-2124 -1257 c43 -95 266 -338 391 -426 35 -25 72 -52 82 -60 11 -8 60 -114
110 -235 49 -121 103 -251 119 -290 70 -168 249 -611 252 -625 1 -9 -39 -82
-91 -163 -129 -200 -115 -202 -331 39 -79 87 -199 249 -268 360 -170 275 -282
595 -310 884 -16 175 2 540 27 540 4 0 13 -11 19 -24z m2643 -68 c15 -100 18
-363 6 -468 -51 -428 -257 -866 -577 -1224 -134 -151 -173 -186 -205 -186 -30
0 -37 8 -101 107 -38 59 -71 112 -73 117 -2 6 -15 25 -27 42 l-24 31 36 89
c20 49 43 105 51 124 8 19 19 44 23 55 9 25 4 11 177 435 80 195 151 368 159
384 8 16 14 34 14 41 0 7 51 51 113 98 151 115 280 250 360 378 23 37 45 68
48 69 3 0 12 -42 20 -92z m-1621 -634 c19 -3 62 -9 95 -14 57 -8 336 -6 400 3
82 12 163 32 296 73 12 3 -11 -64 -83 -238 -54 -134 -103 -252 -108 -263 -5
-11 -50 -121 -100 -245 -50 -124 -108 -265 -129 -315 -21 -49 -49 -118 -62
-152 -21 -57 -39 -80 -39 -53 0 6 -22 63 -49 128 -27 64 -114 277 -194 472
-80 195 -162 396 -182 445 -49 120 -76 187 -82 206 -4 14 11 12 99 -12 56 -16
119 -32 138 -35z m60 -1236 c0 -5 -14 -8 -30 -8 l-31 0 17 32 16 32 14 -25 c7
-13 13 -27 14 -31z m474 -6 c-34 -5 -37 0 -23 32 l12 26 19 -27 18 -28 -26 -3z
m-934 -221 c0 -5 -85 -141 -189 -302 l-189 -294 15 -30 c38 -75 163 -205 268
-280 177 -125 363 -194 600 -221 69 -8 310 -8 365 1 312 46 539 152 726 341
38 39 87 97 108 128 l37 56 -143 221 c-79 122 -150 233 -158 248 -9 14 -28 45
-43 69 -16 24 -30 49 -33 57 -4 11 210 13 1223 11 l1228 -1 1 -105 c1 -58 4
-392 8 -743 l5 -638 -1242 5 c-683 3 -1876 9 -2652 12 -775 3 -1630 6 -1900 8
l-490 2 -3 732 -2 732 1230 0 c676 0 1230 -4 1230 -9z m559 -19 c10 -23 17
-536 12 -866 l-1 -38 -56 7 c-236 29 -432 117 -582 261 l-61 59 150 230 c82
127 153 237 157 245 4 8 24 41 45 72 l39 56 143 1 142 1 12 -28z m543 15 c8
-7 43 -57 78 -112 35 -55 87 -136 115 -180 140 -216 160 -246 182 -283 11 -18
6 -26 -47 -75 -154 -144 -362 -238 -577 -261 l-63 -7 0 33 c-6 339 1 846 10
869 l12 28 138 0 c92 0 143 -4 152 -12z"/>
</g>
</svg>
